<svg xmlns="http://www.w3.org/2000/svg" viewBox="0 0 400 300">
  <rect width="400" height="300" fill="#F4F6F8"/>
  <rect x="1" y="1" width="398" height="298" fill="none" stroke="#E3E7EC" stroke-width="2"/>
  <g transform="translate(200,118)" fill="none" stroke="#0B5ED7" stroke-width="6" stroke-linecap="round" stroke-linejoin="round" opacity="0.9">
<circle cx="0" cy="0" r="55"/>
<line x1="50.0" y1="0.0" x2="58.0" y2="0.0"/><line x1="43.3" y1="25.0" x2="50.2" y2="29.0"/><line x1="25.0" y1="43.3" x2="29.0" y2="50.2"/><line x1="0.0" y1="50.0" x2="0.0" y2="58.0"/><line x1="-25.0" y1="43.3" x2="-29.0" y2="50.2"/><line x1="-43.3" y1="25.0" x2="-50.2" y2="29.0"/><line x1="-50.0" y1="0.0" x2="-58.0" y2="0.0"/><line x1="-43.3" y1="-25.0" x2="-50.2" y2="-29.0"/><line x1="-25.0" y1="-43.3" x2="-29.0" y2="-50.2"/><line x1="-0.0" y1="-50.0" x2="-0.0" y2="-58.0"/><line x1="25.0" y1="-43.3" x2="29.0" y2="-50.2"/><line x1="43.3" y1="-25.0" x2="50.2" y2="-29.0"/>
<line x1="0" y1="0" x2="24" y2="-32"/>
<circle cx="0" cy="0" r="6" fill="#0B5ED7" stroke="none"/>
</g>
  <text x="200" y="252" font-family="Cairo, Tajawal, sans-serif" font-size="15" font-weight="600" fill="#5B6472" text-anchor="middle">بروجرامر غسالة</text><text x="200" y="272" font-family="Cairo, Tajawal, sans-serif" font-size="15" font-weight="600" fill="#5B6472" text-anchor="middle">نصف أوتوماتيك</text>
  <rect x="150" y="288" width="100" height="1" fill="none"/>
</svg>